<?xml version="1.0" encoding="UTF-8"?>
<!DOCTYPE svg
PUBLIC "-//W3C//DTD SVG 1.1//EN"
       "http://www.w3.org/Graphics/SVG/1.1/DTD/svg11.dtd">
<svg viewBox="6 41 800 699" width="794px" height="658px" xmlns="http://www.w3.org/2000/svg" version="1.1">
   <rect width="206" height="20" x="574" y="68" style="fill:#007;stroke:black;"/>
   <text width="206" height="20" x="579" y="82" style="fill:#fff;" font-family="Arial" font-size="16px"> customers</text>
   <rect width="206" height="20" x="574" y="88" style="fill:#aea;stroke:black;"/>
   <text width="206" height="20" x="579" y="102" style="fill:black;" font-family="Arial" font-size="16px">customerNumber</text>
   <rect width="206" height="20" x="574" y="108" style="fill:none;stroke:black;"/>
   <text width="206" height="20" x="579" y="122" style="fill:black;" font-family="Arial" font-size="16px">customerName</text>
   <rect width="206" height="20" x="574" y="128" style="fill:none;stroke:black;"/>
   <text width="206" height="20" x="579" y="142" style="fill:black;" font-family="Arial" font-size="16px">contactLastName</text>
   <rect width="206" height="20" x="574" y="148" style="fill:none;stroke:black;"/>
   <text width="206" height="20" x="579" y="162" style="fill:black;" font-family="Arial" font-size="16px">contactFirstName</text>
   <rect width="206" height="20" x="574" y="168" style="fill:none;stroke:black;"/>
   <text width="206" height="20" x="579" y="182" style="fill:black;" font-family="Arial" font-size="16px">phone</text>
   <rect width="206" height="20" x="574" y="188" style="fill:none;stroke:black;"/>
   <text width="206" height="20" x="579" y="202" style="fill:black;" font-family="Arial" font-size="16px">addressLine1</text>
   <rect width="206" height="20" x="574" y="208" style="fill:none;stroke:black;"/>
   <text width="206" height="20" x="579" y="222" style="fill:black;" font-family="Arial" font-size="16px">addressLine2</text>
   <rect width="206" height="20" x="574" y="228" style="fill:none;stroke:black;"/>
   <text width="206" height="20" x="579" y="242" style="fill:black;" font-family="Arial" font-size="16px">city</text>
   <rect width="206" height="20" x="574" y="248" style="fill:none;stroke:black;"/>
   <text width="206" height="20" x="579" y="262" style="fill:black;" font-family="Arial" font-size="16px">state</text>
   <rect width="206" height="20" x="574" y="268" style="fill:none;stroke:black;"/>
   <text width="206" height="20" x="579" y="282" style="fill:black;" font-family="Arial" font-size="16px">postalCode</text>
   <rect width="206" height="20" x="574" y="288" style="fill:none;stroke:black;"/>
   <text width="206" height="20" x="579" y="302" style="fill:black;" font-family="Arial" font-size="16px">country</text>
   <rect width="206" height="20" x="574" y="308" style="fill:none;stroke:black;"/>
   <text width="206" height="20" x="579" y="322" style="fill:black;" font-family="Arial" font-size="16px">salesRepEmployeeNumber</text>
   <rect width="206" height="20" x="574" y="328" style="fill:none;stroke:black;"/>
   <text width="206" height="20" x="579" y="342" style="fill:black;" font-family="Arial" font-size="16px">creditLimit</text>
   <rect width="137" height="20" x="29" y="56" style="fill:#007;stroke:black;"/>
   <text width="137" height="20" x="34" y="70" style="fill:#fff;" font-family="Arial" font-size="16px"> employees</text>
   <rect width="137" height="20" x="29" y="76" style="fill:#aea;stroke:black;"/>
   <text width="137" height="20" x="34" y="90" style="fill:black;" font-family="Arial" font-size="16px">employeeNumber</text>
   <rect width="137" height="20" x="29" y="96" style="fill:none;stroke:black;"/>
   <text width="137" height="20" x="34" y="110" style="fill:black;" font-family="Arial" font-size="16px">lastName</text>
   <rect width="137" height="20" x="29" y="116" style="fill:none;stroke:black;"/>
   <text width="137" height="20" x="34" y="130" style="fill:black;" font-family="Arial" font-size="16px">firstName</text>
   <rect width="137" height="20" x="29" y="136" style="fill:none;stroke:black;"/>
   <text width="137" height="20" x="34" y="150" style="fill:black;" font-family="Arial" font-size="16px">extension</text>
   <rect width="137" height="20" x="29" y="156" style="fill:none;stroke:black;"/>
   <text width="137" height="20" x="34" y="170" style="fill:black;" font-family="Arial" font-size="16px">email</text>
   <rect width="137" height="20" x="29" y="176" style="fill:none;stroke:black;"/>
   <text width="137" height="20" x="34" y="190" style="fill:black;" font-family="Arial" font-size="16px">officeCode</text>
   <rect width="137" height="20" x="29" y="196" style="fill:none;stroke:black;"/>
   <text width="137" height="20" x="34" y="210" style="fill:black;" font-family="Arial" font-size="16px">reportsTo</text>
   <rect width="137" height="20" x="29" y="216" style="fill:none;stroke:black;"/>
   <text width="137" height="20" x="34" y="230" style="fill:black;" font-family="Arial" font-size="16px">jobTitle</text>
   <rect width="106" height="20" x="407" y="484" style="fill:#007;stroke:black;"/>
   <text width="106" height="20" x="412" y="498" style="fill:#fff;" font-family="Arial" font-size="16px"> offices</text>
   <rect width="106" height="20" x="407" y="504" style="fill:none;stroke:black;"/>
   <text width="106" height="20" x="412" y="518" style="fill:black;" font-family="Arial" font-size="16px">officeCode</text>
   <rect width="106" height="20" x="407" y="524" style="fill:none;stroke:black;"/>
   <text width="106" height="20" x="412" y="538" style="fill:black;" font-family="Arial" font-size="16px">city</text>
   <rect width="106" height="20" x="407" y="544" style="fill:none;stroke:black;"/>
   <text width="106" height="20" x="412" y="558" style="fill:black;" font-family="Arial" font-size="16px">phone</text>
   <rect width="106" height="20" x="407" y="564" style="fill:none;stroke:black;"/>
   <text width="106" height="20" x="412" y="578" style="fill:black;" font-family="Arial" font-size="16px">addressLine1</text>
   <rect width="106" height="20" x="407" y="584" style="fill:none;stroke:black;"/>
   <text width="106" height="20" x="412" y="598" style="fill:black;" font-family="Arial" font-size="16px">addressLine2</text>
   <rect width="106" height="20" x="407" y="604" style="fill:none;stroke:black;"/>
   <text width="106" height="20" x="412" y="618" style="fill:black;" font-family="Arial" font-size="16px">state</text>
   <rect width="106" height="20" x="407" y="624" style="fill:none;stroke:black;"/>
   <text width="106" height="20" x="412" y="638" style="fill:black;" font-family="Arial" font-size="16px">country</text>
   <rect width="106" height="20" x="407" y="644" style="fill:none;stroke:black;"/>
   <text width="106" height="20" x="412" y="658" style="fill:black;" font-family="Arial" font-size="16px">postalCode</text>
   <rect width="106" height="20" x="407" y="664" style="fill:none;stroke:black;"/>
   <text width="106" height="20" x="412" y="678" style="fill:black;" font-family="Arial" font-size="16px">territory</text>
   <rect width="135" height="20" x="333" y="233" style="fill:#007;stroke:black;"/>
   <text width="135" height="20" x="338" y="247" style="fill:#fff;" font-family="Arial" font-size="16px"> orderdetails</text>
   <rect width="135" height="20" x="333" y="253" style="fill:#aea;stroke:black;"/>
   <text width="135" height="20" x="338" y="267" style="fill:black;" font-family="Arial" font-size="16px">orderNumber</text>
   <rect width="135" height="20" x="333" y="273" style="fill:none;stroke:black;"/>
   <text width="135" height="20" x="338" y="287" style="fill:black;" font-family="Arial" font-size="16px">productCode</text>
   <rect width="135" height="20" x="333" y="293" style="fill:none;stroke:black;"/>
   <text width="135" height="20" x="338" y="307" style="fill:black;" font-family="Arial" font-size="16px">quantityOrdered</text>
   <rect width="135" height="20" x="333" y="313" style="fill:none;stroke:black;"/>
   <text width="135" height="20" x="338" y="327" style="fill:black;" font-family="Arial" font-size="16px">priceEach</text>
   <rect width="135" height="20" x="333" y="333" style="fill:none;stroke:black;"/>
   <text width="135" height="20" x="338" y="347" style="fill:black;" font-family="Arial" font-size="16px">orderLineNumber</text>
   <rect width="133" height="20" x="414" y="340" style="fill:#007;stroke:black;"/>
   <text width="133" height="20" x="419" y="354" style="fill:#fff;" font-family="Arial" font-size="16px"> orders</text>
   <rect width="133" height="20" x="414" y="360" style="fill:#aea;stroke:black;"/>
   <text width="133" height="20" x="419" y="374" style="fill:black;" font-family="Arial" font-size="16px">orderNumber</text>
   <rect width="133" height="20" x="414" y="380" style="fill:none;stroke:black;"/>
   <text width="133" height="20" x="419" y="394" style="fill:black;" font-family="Arial" font-size="16px">orderDate</text>
   <rect width="133" height="20" x="414" y="400" style="fill:none;stroke:black;"/>
   <text width="133" height="20" x="419" y="414" style="fill:black;" font-family="Arial" font-size="16px">requiredDate</text>
   <rect width="133" height="20" x="414" y="420" style="fill:none;stroke:black;"/>
   <text width="133" height="20" x="419" y="434" style="fill:black;" font-family="Arial" font-size="16px">shippedDate</text>
   <rect width="133" height="20" x="414" y="440" style="fill:none;stroke:black;"/>
   <text width="133" height="20" x="419" y="454" style="fill:black;" font-family="Arial" font-size="16px">status</text>
   <rect width="133" height="20" x="414" y="460" style="fill:none;stroke:black;"/>
   <text width="133" height="20" x="419" y="474" style="fill:black;" font-family="Arial" font-size="16px">comments</text>
   <rect width="133" height="20" x="414" y="480" style="fill:none;stroke:black;"/>
   <text width="133" height="20" x="419" y="494" style="fill:black;" font-family="Arial" font-size="16px">customerNumber</text>
   <rect width="133" height="20" x="652" y="433" style="fill:#007;stroke:black;"/>
   <text width="133" height="20" x="657" y="447" style="fill:#fff;" font-family="Arial" font-size="16px"> payments</text>
   <rect width="133" height="20" x="652" y="453" style="fill:#aea;stroke:black;"/>
   <text width="133" height="20" x="657" y="467" style="fill:black;" font-family="Arial" font-size="16px">customerNumber</text>
   <rect width="133" height="20" x="652" y="473" style="fill:none;stroke:black;"/>
   <text width="133" height="20" x="657" y="487" style="fill:black;" font-family="Arial" font-size="16px">checkNumber</text>
   <rect width="133" height="20" x="652" y="493" style="fill:none;stroke:black;"/>
   <text width="133" height="20" x="657" y="507" style="fill:black;" font-family="Arial" font-size="16px">paymentDate</text>
   <rect width="133" height="20" x="652" y="513" style="fill:none;stroke:black;"/>
   <text width="133" height="20" x="657" y="527" style="fill:black;" font-family="Arial" font-size="16px">amount</text>
   <rect width="121" height="20" x="21" y="114" style="fill:#007;stroke:black;"/>
   <text width="121" height="20" x="26" y="128" style="fill:#fff;" font-family="Arial" font-size="16px"> productlines</text>
   <rect width="121" height="20" x="21" y="134" style="fill:none;stroke:black;"/>
   <text width="121" height="20" x="26" y="148" style="fill:black;" font-family="Arial" font-size="16px">productLine</text>
   <rect width="121" height="20" x="21" y="154" style="fill:none;stroke:black;"/>
   <text width="121" height="20" x="26" y="168" style="fill:black;" font-family="Arial" font-size="16px">textDescription</text>
   <rect width="121" height="20" x="21" y="174" style="fill:none;stroke:black;"/>
   <text width="121" height="20" x="26" y="188" style="fill:black;" font-family="Arial" font-size="16px">htmlDescription</text>
   <rect width="121" height="20" x="21" y="194" style="fill:none;stroke:black;"/>
   <text width="121" height="20" x="26" y="208" style="fill:black;" font-family="Arial" font-size="16px">image</text>
   <rect width="144" height="20" x="378" y="70" style="fill:#007;stroke:black;"/>
   <text width="144" height="20" x="383" y="84" style="fill:#fff;" font-family="Arial" font-size="16px"> products</text>
   <rect width="144" height="20" x="378" y="90" style="fill:none;stroke:black;"/>
   <text width="144" height="20" x="383" y="104" style="fill:black;" font-family="Arial" font-size="16px">productCode</text>
   <rect width="144" height="20" x="378" y="110" style="fill:none;stroke:black;"/>
   <text width="144" height="20" x="383" y="124" style="fill:black;" font-family="Arial" font-size="16px">productName</text>
   <rect width="144" height="20" x="378" y="130" style="fill:none;stroke:black;"/>
   <text width="144" height="20" x="383" y="144" style="fill:black;" font-family="Arial" font-size="16px">productLine</text>
   <rect width="144" height="20" x="378" y="150" style="fill:none;stroke:black;"/>
   <text width="144" height="20" x="383" y="164" style="fill:black;" font-family="Arial" font-size="16px">productScale</text>
   <rect width="144" height="20" x="378" y="170" style="fill:none;stroke:black;"/>
   <text width="144" height="20" x="383" y="184" style="fill:black;" font-family="Arial" font-size="16px">productVendor</text>
   <rect width="144" height="20" x="378" y="190" style="fill:none;stroke:black;"/>
   <text width="144" height="20" x="383" y="204" style="fill:black;" font-family="Arial" font-size="16px">productDescription</text>
   <rect width="144" height="20" x="378" y="210" style="fill:none;stroke:black;"/>
   <text width="144" height="20" x="383" y="224" style="fill:black;" font-family="Arial" font-size="16px">quantityInStock</text>
   <rect width="144" height="20" x="378" y="230" style="fill:none;stroke:black;"/>
   <text width="144" height="20" x="383" y="244" style="fill:black;" font-family="Arial" font-size="16px">buyPrice</text>
   <rect width="144" height="20" x="378" y="250" style="fill:none;stroke:black;"/>
   <text width="144" height="20" x="383" y="264" style="fill:black;" font-family="Arial" font-size="16px">MSRP</text>
</svg>
